<?xml version="1.0" encoding="UTF-8"?>
<svg id="Layer_1" xmlns="http://www.w3.org/2000/svg" version="1.1" viewBox="0 0 132 169">
  <!-- Generator: Adobe Illustrator 29.0.1, SVG Export Plug-In . SVG Version: 2.1.0 Build 192)  -->
  <defs>
    <style>
      .st0 {
        fill: #fff;
      }
    </style>
  </defs>
  <path class="st0" d="M110.1,32.8v17c-4.2,5.5-7.3,10.8-9.3,15.8-2,5-3.1,10.2-3.1,15.7v31.6c0,10-3.1,17.7-9.2,23.1-6.1,5.4-14.6,8.1-25.5,8.1s-13.4-1.5-18.6-4.6c-5.3-3.1-9.1-7.4-11.6-13l14.2-10.8c1.9,3.5,4.1,6.2,6.9,8.2,2.7,1.9,5.7,2.9,9,2.9s8.1-1.4,10.9-4.3c2.8-2.9,4.2-7,4.2-12.4v-28.7c0-5.5,1-10.7,3.1-15.7,2.1-5,5.2-10.3,9.4-15.7l-1.5-17h21ZM104.7,32.8v17H34.1v-17h70.7ZM111.1,75.5v15.2h-60.9v-15.2h60.9Z"/>
</svg>